<svg width="169" height="56" viewBox="0 0 169 56" fill="none" xmlns="http://www.w3.org/2000/svg">
<path d="M24.088 19.08V22.824H19.576V36H14.872V22.824H10.408V19.08H24.088ZM28.2044 21.288C27.3724 21.288 26.7004 21.064 26.1884 20.616C25.6924 20.152 25.4444 19.576 25.4444 18.888C25.4444 18.184 25.6924 17.6 26.1884 17.136C26.7004 16.672 27.3724 16.44 28.2044 16.44C29.0204 16.44 29.6764 16.672 30.1724 17.136C30.6844 17.6 30.9404 18.184 30.9404 18.888C30.9404 19.576 30.6844 20.152 30.1724 20.616C29.6764 21.064 29.0204 21.288 28.2044 21.288ZM30.5324 22.536V36H25.8284V22.536H30.5324ZM32.4432 29.256C32.4432 27.864 32.7312 26.648 33.3072 25.608C33.8832 24.568 34.6832 23.768 35.7072 23.208C36.7472 22.648 37.9312 22.368 39.2592 22.368C40.9712 22.368 42.4112 22.84 43.5792 23.784C44.7472 24.712 45.4992 26.016 45.8352 27.696H40.8432C40.5552 26.816 39.9952 26.376 39.1632 26.376C38.5712 26.376 38.0992 26.624 37.7472 27.12C37.4112 27.6 37.2432 28.312 37.2432 29.256C37.2432 30.2 37.4112 30.92 37.7472 31.416C38.0992 31.912 38.5712 32.16 39.1632 32.16C40.0112 32.16 40.5712 31.72 40.8432 30.84H45.8352C45.4992 32.504 44.7472 33.808 43.5792 34.752C42.4112 35.696 40.9712 36.168 39.2592 36.168C37.9312 36.168 36.7472 35.888 35.7072 35.328C34.6832 34.768 33.8832 33.968 33.3072 32.928C32.7312 31.888 32.4432 30.664 32.4432 29.256ZM56.2133 36L52.4933 30.48V36H47.7893V18.24H52.4933V27.816L56.2133 22.536H61.8533L56.5493 29.304L61.9493 36H56.2133ZM76.1924 29.112C76.1924 29.48 76.1684 29.848 76.1204 30.216H67.2164C67.2644 30.952 67.4644 31.504 67.8164 31.872C68.1844 32.224 68.6484 32.4 69.2084 32.4C69.9924 32.4 70.5524 32.048 70.8884 31.344H75.9044C75.6964 32.272 75.2884 33.104 74.6804 33.84C74.0884 34.56 73.3364 35.128 72.4244 35.544C71.5124 35.96 70.5044 36.168 69.4004 36.168C68.0724 36.168 66.8884 35.888 65.8484 35.328C64.8244 34.768 64.0164 33.968 63.4244 32.928C62.8484 31.888 62.5604 30.664 62.5604 29.256C62.5604 27.848 62.8484 26.632 63.4244 25.608C64.0004 24.568 64.8004 23.768 65.8244 23.208C66.8644 22.648 68.0564 22.368 69.4004 22.368C70.7284 22.368 71.9044 22.64 72.9284 23.184C73.9524 23.728 74.7524 24.512 75.3284 25.536C75.9044 26.544 76.1924 27.736 76.1924 29.112ZM71.3924 27.936C71.3924 27.36 71.2004 26.912 70.8164 26.592C70.4324 26.256 69.9524 26.088 69.3764 26.088C68.8004 26.088 68.3284 26.248 67.9604 26.568C67.5924 26.872 67.3524 27.328 67.2404 27.936H71.3924ZM86.0614 31.992V36H84.0214C80.5814 36 78.8614 34.296 78.8614 30.888V26.448H77.2054V22.536H78.8614V19.272H83.5894V22.536H86.0374V26.448H83.5894V30.96C83.5894 31.328 83.6694 31.592 83.8294 31.752C84.0054 31.912 84.2934 31.992 84.6934 31.992H86.0614Z" fill="#1769AA"/>
<path d="M101.587 24.72C101.587 25.744 101.347 26.68 100.867 27.528C100.403 28.36 99.691 29.032 98.731 29.544C97.787 30.04 96.627 30.288 95.251 30.288H92.923V36H88.219V19.08H95.251C96.611 19.08 97.763 19.32 98.707 19.8C99.667 20.28 100.387 20.944 100.867 21.792C101.347 22.64 101.587 23.616 101.587 24.72ZM94.795 26.544C96.123 26.544 96.787 25.936 96.787 24.72C96.787 23.488 96.123 22.872 94.795 22.872H92.923V26.544H94.795ZM109.741 36.168C108.397 36.168 107.189 35.888 106.117 35.328C105.061 34.768 104.229 33.968 103.621 32.928C103.013 31.888 102.709 30.664 102.709 29.256C102.709 27.864 103.013 26.648 103.621 25.608C104.245 24.568 105.085 23.768 106.141 23.208C107.213 22.648 108.421 22.368 109.765 22.368C111.109 22.368 112.309 22.648 113.365 23.208C114.437 23.768 115.277 24.568 115.885 25.608C116.509 26.648 116.821 27.864 116.821 29.256C116.821 30.648 116.509 31.872 115.885 32.928C115.277 33.968 114.437 34.768 113.365 35.328C112.293 35.888 111.085 36.168 109.741 36.168ZM109.741 32.088C110.397 32.088 110.941 31.848 111.373 31.368C111.821 30.872 112.045 30.168 112.045 29.256C112.045 28.344 111.821 27.648 111.373 27.168C110.941 26.688 110.405 26.448 109.765 26.448C109.125 26.448 108.589 26.688 108.157 27.168C107.725 27.648 107.509 28.344 107.509 29.256C107.509 30.184 107.717 30.888 108.133 31.368C108.549 31.848 109.085 32.088 109.741 32.088ZM121.111 21.288C120.279 21.288 119.607 21.064 119.095 20.616C118.599 20.152 118.351 19.576 118.351 18.888C118.351 18.184 118.599 17.6 119.095 17.136C119.607 16.672 120.279 16.44 121.111 16.44C121.927 16.44 122.583 16.672 123.079 17.136C123.591 17.6 123.847 18.184 123.847 18.888C123.847 19.576 123.591 20.152 123.079 20.616C122.583 21.064 121.927 21.288 121.111 21.288ZM123.439 22.536V36H118.735V22.536H123.439ZM134.925 22.416C136.477 22.416 137.709 22.936 138.621 23.976C139.533 25 139.989 26.392 139.989 28.152V36H135.285V28.776C135.285 28.008 135.085 27.408 134.685 26.976C134.285 26.528 133.749 26.304 133.077 26.304C132.373 26.304 131.821 26.528 131.421 26.976C131.021 27.408 130.821 28.008 130.821 28.776V36H126.117V22.536H130.821V24.456C131.237 23.848 131.797 23.36 132.501 22.992C133.205 22.608 134.013 22.416 134.925 22.416ZM150.515 31.992V36H148.475C145.035 36 143.315 34.296 143.315 30.888V26.448H141.659V22.536H143.315V19.272H148.043V22.536H150.491V26.448H148.043V30.96C148.043 31.328 148.123 31.592 148.283 31.752C148.459 31.912 148.747 31.992 149.147 31.992H150.515ZM154.952 36.192C154.12 36.192 153.448 35.968 152.936 35.52C152.44 35.056 152.192 34.472 152.192 33.768C152.192 33.064 152.44 32.48 152.936 32.016C153.448 31.552 154.12 31.32 154.952 31.32C155.768 31.32 156.424 31.552 156.92 32.016C157.432 32.48 157.688 33.064 157.688 33.768C157.688 34.456 157.432 35.032 156.92 35.496C156.424 35.96 155.768 36.192 154.952 36.192Z" fill="#FFC400"/>
</svg>
